# Blender v2.83.8 OBJ File: 'dual shard.blend'
# www.blender.org
mtllib double_vis_crystal_block.mtl
o Cube.001
v -0.079761 0.062463 0.101606
v 0.123451 0.062463 0.101606
v 0.021845 0.255450 0.000000
v 0.123451 -0.508030 0.101606
v -0.079761 -0.508030 0.101606
v -0.079761 0.062463 -0.101606
v -0.079761 -0.508030 -0.101606
v 0.123451 -0.508030 -0.101606
v 0.123451 0.062463 -0.101606
vt 0.350769 0.991211
vt 0.350769 0.820312
vt 0.441456 0.820689
vt 0.212219 0.820312
vt 0.212219 0.991211
vt 0.212219 0.307617
vt 0.350769 0.307617
vt 0.350769 0.478516
vt 0.212219 0.478516
vt 0.073669 0.649414
vt 0.212219 0.649414
vt 0.073669 0.820312
vt 0.350769 0.649414
vt 0.434480 0.307994
vt 0.350769 0.478516
vt 0.436805 0.648241
vt 0.464493 0.478745
vt 0.350769 0.649414
vn 0.0000 0.4659 0.8849
vn 0.0000 -0.0000 1.0000
vn -1.0000 0.0000 0.0000
vn 0.0000 -1.0000 0.0000
vn 1.0000 -0.0000 0.0000
vn 0.0000 0.0000 -1.0000
vn -0.8849 0.4659 0.0000
vn 0.8849 0.4659 0.0000
vn 0.0000 0.4659 -0.8849
usemtl viscrystal2
s 1
f 1/1/1 2/2/1 3/3/1
f 4/4/2 2/2/2 1/1/2 5/5/2
f 5/6/3 1/7/3 6/8/3 7/9/3
f 7/10/4 8/11/4 4/4/4 5/12/4
f 8/11/5 9/13/5 2/2/5 4/4/5
f 7/9/6 6/8/6 9/13/6 8/11/6
f 6/14/7 1/7/7 3/15/7
f 2/2/8 9/13/8 3/16/8
f 9/17/9 6/8/9 3/18/9
o Cube.002
v -0.057075 -0.058172 -0.286738
v 0.110589 -0.040136 -0.261327
v 0.049189 -0.008307 -0.451029
v 0.088898 -0.350806 0.102294
v -0.078766 -0.368842 0.076883
v -0.026886 -0.186666 -0.394720
v -0.048578 -0.497336 -0.031098
v 0.119086 -0.479300 -0.005687
v 0.140777 -0.168630 -0.369309
vt 0.350769 0.991211
vt 0.350769 0.820312
vt 0.441456 0.820689
vt 0.212219 0.820312
vt 0.212219 0.991211
vt 0.212219 0.307617
vt 0.350769 0.307617
vt 0.350769 0.478516
vt 0.212219 0.478516
vt 0.073669 0.649414
vt 0.212219 0.649414
vt 0.073669 0.820312
vt 0.350769 0.649414
vt 0.434480 0.307994
vt 0.350769 0.478516
vt 0.436805 0.648241
vt 0.464493 0.478745
vt 0.350769 0.649414
vn -0.1355 0.9690 0.2065
vn -0.1770 0.7535 0.6332
vn -0.9832 -0.1058 -0.1490
vn -0.0453 -0.6489 0.7595
vn 0.9832 0.1058 0.1490
vn 0.1770 -0.7535 -0.6332
vn -0.8488 0.2087 -0.4857
vn 0.8911 0.3959 -0.2220
vn 0.1777 -0.3644 -0.9141
usemtl viscrystal2
s 1
f 10/19/10 11/20/10 12/21/10
f 13/22/11 11/20/11 10/19/11 14/23/11
f 14/24/12 10/25/12 15/26/12 16/27/12
f 16/28/13 17/29/13 13/22/13 14/30/13
f 17/29/14 18/31/14 11/20/14 13/22/14
f 16/27/15 15/26/15 18/31/15 17/29/15
f 15/32/16 10/25/16 12/33/16
f 11/20/17 18/31/17 12/34/17
f 18/35/18 15/26/18 12/36/18
