# Blender v2.83.8 OBJ File: 'single_shard.blend'
# www.blender.org
mtllib single_vis_crystal_block.mtl
o Cube
v 0.100000 0.061476 -0.100000
v 0.100000 -0.500000 -0.100000
v 0.100000 0.061476 0.100000
v 0.100000 -0.500000 0.100000
v -0.100000 0.061476 -0.100000
v -0.100000 -0.500000 -0.100000
v -0.100000 0.061476 0.100000
v -0.100000 -0.500000 0.100000
v 0.000000 0.251412 0.000000
vt 0.350769 0.991211
vt 0.350769 0.820312
vt 0.441456 0.820689
vt 0.212219 0.820312
vt 0.212219 0.991211
vt 0.212219 0.307617
vt 0.350769 0.307617
vt 0.350769 0.478516
vt 0.212219 0.478516
vt 0.073669 0.649414
vt 0.212219 0.649414
vt 0.073669 0.820312
vt 0.350769 0.649414
vt 0.434480 0.307994
vt 0.350769 0.478516
vt 0.436805 0.648241
vt 0.464493 0.478745
vt 0.350769 0.649414
vn 0.0000 0.4659 0.8849
vn 0.0000 0.0000 1.0000
vn -1.0000 0.0000 0.0000
vn 0.0000 -1.0000 0.0000
vn 1.0000 0.0000 0.0000
vn 0.0000 0.0000 -1.0000
vn -0.8849 0.4659 0.0000
vn 0.8849 0.4659 0.0000
vn 0.0000 0.4659 -0.8849
usemtl viscrystal
s off
f 7/1/1 3/2/1 9/3/1
f 4/4/2 3/2/2 7/1/2 8/5/2
f 8/6/3 7/7/3 5/8/3 6/9/3
f 6/10/4 2/11/4 4/4/4 8/12/4
f 2/11/5 1/13/5 3/2/5 4/4/5
f 6/9/6 5/8/6 1/13/6 2/11/6
f 5/14/7 7/7/7 9/15/7
f 3/2/8 1/13/8 9/16/8
f 1/17/9 5/8/9 9/18/9
